<svg width="22" height="20" viewBox="0 0 22 20" fill="none" xmlns="http://www.w3.org/2000/svg">
<path fill-rule="evenodd" clip-rule="evenodd" d="M11.7046 2.25632C12.8299 1.13054 14.3564 0.498047 15.9482 0.498047C17.5399 0.498047 19.0664 1.13051 20.1916 2.25624C21.3174 3.38152 21.95 4.90816 21.95 6.49987C21.95 8.09162 21.3175 9.61813 20.1917 10.7434C20.1917 10.7435 20.1917 10.7434 20.1917 10.7434L11.3517 19.5834C11.1565 19.7787 10.8399 19.7787 10.6446 19.5834L1.80461 10.7434C-0.539037 8.39978 -0.539037 4.59997 1.80461 2.25632C4.14826 -0.0873307 7.94807 -0.0873308 10.2917 2.25632L10.9982 2.96277L11.7046 2.25632C11.7046 2.25635 11.7046 2.25629 11.7046 2.25632ZM15.9482 1.49805C14.6217 1.49805 13.3496 2.02515 12.4118 2.96334L11.3517 4.02343C11.258 4.11719 11.1308 4.16987 10.9982 4.16987C10.8656 4.16987 10.7384 4.11719 10.6446 4.02343L9.58461 2.96343C7.63149 1.0103 4.46484 1.0103 2.51172 2.96343C0.558594 4.91655 0.558594 8.08319 2.51172 10.0363L10.9982 18.5228L19.4846 10.0363C20.4228 9.09857 20.95 7.82636 20.95 6.49987C20.95 5.17338 20.4229 3.90126 19.4847 2.96351C18.5469 2.02532 17.2747 1.49805 15.9482 1.49805Z" fill="#414141"/>
</svg>
