<svg width="1440" height="200" viewBox="0 0 1440 200" fill="none" xmlns="http://www.w3.org/2000/svg">
<g style="mix-blend-mode:multiply" opacity="0.3">
<path d="M13.0389 19.9929L-15.1962 -5.32392C-15.7877 -5.85435 -16.7229 -5.78332 -17.2022 -5.13954C-22.9205 2.48521 -21.3687 13.9141 -13.3916 21.0668C-5.41454 28.2194 6.11298 28.5227 13.0735 22.0071C13.6588 21.4583 13.6304 20.5233 13.0389 19.9929Z" fill="#FF6633"/>
<path d="M159.221 192.796L187.456 218.113C188.047 218.643 188.983 218.572 189.462 217.928C195.18 210.304 193.629 198.875 185.651 191.722C177.674 184.569 166.147 184.266 159.186 190.782C158.601 191.33 158.629 192.265 159.221 192.796Z" fill="#FF6633"/>
<path d="M191.079 69.1119L161.715 45.1138C161.1 44.611 160.169 44.7247 159.719 45.3898C154.356 53.2682 156.429 64.6141 164.725 71.3942C173.021 78.1743 184.551 77.9497 191.206 71.1224C191.765 70.5474 191.694 69.6147 191.079 69.1119Z" fill="#FF6633"/>
<path d="M0.59666 152.597L27.3053 125.675C27.8648 125.111 27.8411 124.173 27.2223 123.662C19.8956 117.567 8.40297 118.54 0.857124 126.146C-6.68872 133.753 -7.57297 145.25 -1.41676 152.53C-0.898169 153.143 0.0370759 153.161 0.59666 152.597Z" fill="#FF6633"/>
<path d="M-5.08468 91.3229C-10.6525 91.9142 -16.1277 83.3391 -17.3139 72.1699C-18.5001 61.0007 -14.9481 51.4669 -9.38029 50.8756C-3.81245 50.2843 1.66278 58.8594 2.84898 70.0286C4.03517 81.1978 0.483157 90.7316 -5.08468 91.3229Z" fill="#FCA21C"/>
<path d="M180.571 110.581C186.139 109.99 191.614 118.565 192.8 129.734C193.986 140.903 190.434 150.437 184.867 151.029C179.299 151.62 173.824 143.045 172.637 131.876C171.451 120.706 175.003 111.173 180.571 110.581Z" fill="#FCA21C"/>
<path d="M119.855 4.90633C123.476 7.509 121.097 17.0123 114.541 26.1326C107.985 35.2529 99.7353 40.5364 96.1145 37.9337C92.4938 35.3311 94.8732 25.8278 101.429 16.7075C107.985 7.58721 116.235 2.30366 119.855 4.90633Z" fill="#FCA21C"/>
<path d="M65.9774 159.895C61.5445 159.412 58.9367 149.969 60.1526 138.803C61.3685 127.637 65.9478 118.977 70.3807 119.459C74.8136 119.942 77.4215 129.385 76.2056 140.551C74.9896 151.717 70.4103 160.378 65.9774 159.895Z" fill="#FCA21C"/>
<path fill-rule="evenodd" clip-rule="evenodd" d="M68.3295 64.6266C70.1844 67.2202 69.5838 70.8213 66.9882 72.67C61.1432 76.833 53.2771 78.069 45.827 75.6484C38.3768 73.2277 32.7409 67.6034 30.4589 60.8016C29.4452 57.7804 31.0757 54.5139 34.1007 53.5056C37.1256 52.4972 40.3995 54.129 41.4131 57.1501C42.49 60.3598 45.2994 63.3519 49.3904 64.6812C53.4828 66.0108 57.5143 65.2415 60.2713 63.2779C62.8669 61.4292 66.4747 62.0331 68.3295 64.6266Z" fill="#70C05B"/>
<path fill-rule="evenodd" clip-rule="evenodd" d="M110.578 135.599C108.723 133.006 109.323 129.404 111.919 127.556C117.764 123.393 125.63 122.157 133.08 124.577C140.53 126.998 146.166 132.622 148.448 139.424C149.462 142.445 147.831 145.712 144.807 146.72C141.782 147.729 138.508 146.097 137.494 143.076C136.417 139.866 133.608 136.874 129.517 135.545C125.424 134.215 121.393 134.984 118.636 136.948C116.04 138.797 112.433 138.193 110.578 135.599Z" fill="#70C05B"/>
<path fill-rule="evenodd" clip-rule="evenodd" d="M168.272 -0.775622C167.762 -3.92318 169.9 -6.88277 173.047 -7.38604C180.133 -8.51935 187.729 -6.13255 193.329 -0.654418C198.928 4.8238 201.479 12.3663 200.502 19.4738C200.068 22.6308 197.156 24.8331 193.998 24.3928C190.84 23.9525 188.632 21.0363 189.066 17.8793C189.527 14.5254 188.339 10.5967 185.264 7.58847C182.189 4.57932 178.235 3.47773 174.893 4.01229C171.746 4.51556 168.782 2.37194 168.272 -0.775622Z" fill="#70C05B"/>
<path fill-rule="evenodd" clip-rule="evenodd" d="M78.699 200.053C80.9535 202.308 80.9507 205.959 78.6929 208.207C73.6084 213.271 66.0509 215.779 58.305 214.611C50.5589 213.443 44.0781 208.817 40.7132 202.481C39.2185 199.666 40.2921 196.177 43.1111 194.687C45.9301 193.197 49.427 194.27 50.9216 197.085C52.5095 200.075 55.771 202.567 60.0245 203.208C64.2793 203.85 68.1304 202.431 70.5287 200.042C72.7866 197.793 76.4445 197.798 78.699 200.053Z" fill="#70C05B"/>
<path d="M44.7235 3.95803C43.2204 1.71704 43.8186 -1.31813 46.0596 -2.82121L69.797 -18.7424C72.0379 -20.2455 75.0731 -19.6473 76.5762 -17.4063L81.2709 -10.4068C82.774 -8.16586 82.1758 -5.13069 79.9348 -3.62761L56.1975 12.2936C53.9565 13.7967 50.9213 13.1985 49.4182 10.9575L44.7235 3.95803Z" fill="#1CB9FC"/>
<path d="M98.3576 177.491C97.782 174.854 99.4526 172.251 102.089 171.675L130.013 165.579C132.65 165.003 135.253 166.674 135.829 169.31L137.627 177.544C138.202 180.18 136.532 182.784 133.895 183.36L105.971 189.456C103.335 190.032 100.731 188.361 100.155 185.725L98.3576 177.491Z" fill="#1CB9FC"/>
<path d="M126.497 99.1414C124.483 100.938 121.394 100.761 119.598 98.7476L100.572 77.4178C98.7761 75.4041 98.9525 72.3156 100.966 70.5194L107.256 64.9092C109.269 63.113 112.358 63.2893 114.154 65.303L133.18 86.6328C134.976 88.6465 134.8 91.735 132.786 93.5312L126.497 99.1414Z" fill="#1CB9FC"/>
<path d="M-6.34081 173.558C-3.68133 173.101 -1.1553 174.887 -0.698773 177.547L4.13694 205.717C4.59347 208.376 2.80762 210.902 0.148131 211.359L-8.15848 212.785C-10.818 213.241 -13.344 211.455 -13.8005 208.796L-18.6362 180.626C-19.0928 177.966 -17.3069 175.44 -14.6474 174.984L-6.34081 173.558Z" fill="#1CB9FC"/>
<path d="M265.039 19.9929L236.804 -5.32392C236.212 -5.85435 235.277 -5.78332 234.798 -5.13954C229.079 2.48521 230.631 13.9141 238.608 21.0668C246.585 28.2194 258.113 28.5227 265.074 22.0071C265.659 21.4583 265.63 20.5233 265.039 19.9929Z" fill="#FF6633"/>
<path d="M411.221 192.796L439.456 218.113C440.047 218.643 440.983 218.572 441.462 217.928C447.18 210.304 445.629 198.875 437.651 191.722C429.674 184.569 418.147 184.266 411.186 190.782C410.601 191.33 410.629 192.265 411.221 192.796Z" fill="#FF6633"/>
<path d="M443.079 69.1119L413.715 45.1138C413.1 44.611 412.169 44.7247 411.719 45.3898C406.356 53.2682 408.429 64.6141 416.725 71.3942C425.021 78.1743 436.551 77.9497 443.206 71.1224C443.765 70.5474 443.694 69.6147 443.079 69.1119Z" fill="#FF6633"/>
<path d="M252.597 152.597L279.305 125.675C279.865 125.111 279.841 124.173 279.222 123.662C271.896 117.567 260.403 118.54 252.857 126.146C245.311 133.753 244.427 145.25 250.583 152.53C251.102 153.143 252.037 153.161 252.597 152.597Z" fill="#FF6633"/>
<path d="M246.915 91.3229C241.347 91.9142 235.872 83.3391 234.686 72.1699C233.5 61.0007 237.052 51.4669 242.62 50.8756C248.188 50.2843 253.663 58.8594 254.849 70.0286C256.035 81.1978 252.483 90.7316 246.915 91.3229Z" fill="#FCA21C"/>
<path d="M432.571 110.581C438.139 109.99 443.614 118.565 444.8 129.734C445.986 140.903 442.434 150.437 436.867 151.029C431.299 151.62 425.824 143.045 424.637 131.876C423.451 120.706 427.003 111.173 432.571 110.581Z" fill="#FCA21C"/>
<path d="M371.855 4.90633C375.476 7.509 373.097 17.0123 366.541 26.1326C359.985 35.2529 351.735 40.5364 348.115 37.9337C344.494 35.3311 346.873 25.8278 353.429 16.7075C359.985 7.58721 368.235 2.30366 371.855 4.90633Z" fill="#FCA21C"/>
<path d="M317.977 159.895C313.545 159.412 310.937 149.969 312.153 138.803C313.369 127.637 317.948 118.977 322.381 119.459C326.814 119.942 329.422 129.385 328.206 140.551C326.99 151.717 322.41 160.378 317.977 159.895Z" fill="#FCA21C"/>
<path fill-rule="evenodd" clip-rule="evenodd" d="M320.33 64.6266C322.184 67.2202 321.584 70.8213 318.988 72.67C313.143 76.833 305.277 78.069 297.827 75.6484C290.377 73.2277 284.741 67.6034 282.459 60.8016C281.445 57.7804 283.076 54.5139 286.101 53.5056C289.126 52.4972 292.399 54.129 293.413 57.1501C294.49 60.3598 297.299 63.3519 301.39 64.6812C305.483 66.0108 309.514 65.2415 312.271 63.2779C314.867 61.4292 318.475 62.0331 320.33 64.6266Z" fill="#70C05B"/>
<path fill-rule="evenodd" clip-rule="evenodd" d="M362.578 135.599C360.723 133.006 361.323 129.404 363.919 127.556C369.764 123.393 377.63 122.157 385.08 124.577C392.53 126.998 398.166 132.622 400.448 139.424C401.462 142.445 399.831 145.712 396.807 146.72C393.782 147.729 390.508 146.097 389.494 143.076C388.417 139.866 385.608 136.874 381.517 135.545C377.424 134.215 373.393 134.984 370.636 136.948C368.04 138.797 364.433 138.193 362.578 135.599Z" fill="#70C05B"/>
<path fill-rule="evenodd" clip-rule="evenodd" d="M420.272 -0.775622C419.762 -3.92318 421.9 -6.88277 425.047 -7.38604C432.133 -8.51935 439.729 -6.13255 445.329 -0.654418C450.928 4.8238 453.479 12.3663 452.502 19.4738C452.068 22.6308 449.156 24.8331 445.998 24.3928C442.84 23.9525 440.632 21.0363 441.066 17.8793C441.527 14.5254 440.339 10.5967 437.264 7.58847C434.189 4.57932 430.235 3.47773 426.893 4.01229C423.746 4.51556 420.782 2.37194 420.272 -0.775622Z" fill="#70C05B"/>
<path fill-rule="evenodd" clip-rule="evenodd" d="M330.699 200.053C332.953 202.308 332.951 205.959 330.693 208.207C325.608 213.271 318.051 215.779 310.305 214.611C302.559 213.443 296.078 208.817 292.713 202.481C291.219 199.666 292.292 196.177 295.111 194.687C297.93 193.197 301.427 194.27 302.922 197.085C304.51 200.075 307.771 202.567 312.024 203.208C316.279 203.85 320.13 202.431 322.529 200.042C324.787 197.793 328.445 197.798 330.699 200.053Z" fill="#70C05B"/>
<path d="M296.724 3.95803C295.22 1.71704 295.819 -1.31813 298.06 -2.82121L321.797 -18.7424C324.038 -20.2455 327.073 -19.6473 328.576 -17.4063L333.271 -10.4068C334.774 -8.16586 334.176 -5.13069 331.935 -3.62761L308.197 12.2936C305.956 13.7967 302.921 13.1985 301.418 10.9575L296.724 3.95803Z" fill="#1CB9FC"/>
<path d="M350.358 177.491C349.782 174.854 351.453 172.251 354.089 171.675L382.013 165.579C384.65 165.003 387.253 166.674 387.829 169.31L389.627 177.544C390.202 180.18 388.532 182.784 385.895 183.36L357.971 189.456C355.335 190.032 352.731 188.361 352.155 185.725L350.358 177.491Z" fill="#1CB9FC"/>
<path d="M378.497 99.1414C376.483 100.938 373.394 100.761 371.598 98.7476L352.572 77.4178C350.776 75.4041 350.952 72.3156 352.966 70.5194L359.256 64.9092C361.269 63.113 364.358 63.2893 366.154 65.303L385.18 86.6328C386.976 88.6465 386.8 91.735 384.786 93.5312L378.497 99.1414Z" fill="#1CB9FC"/>
<path d="M245.659 173.558C248.319 173.101 250.845 174.887 251.301 177.547L256.137 205.717C256.593 208.376 254.808 210.902 252.148 211.359L243.842 212.785C241.182 213.241 238.656 211.455 238.199 208.796L233.364 180.626C232.907 177.966 234.693 175.44 237.353 174.984L245.659 173.558Z" fill="#1CB9FC"/>
<path d="M517.039 19.9929L488.804 -5.32392C488.212 -5.85435 487.277 -5.78332 486.798 -5.13954C481.079 2.48521 482.631 13.9141 490.608 21.0668C498.585 28.2194 510.113 28.5227 517.074 22.0071C517.659 21.4583 517.63 20.5233 517.039 19.9929Z" fill="#FF6633"/>
<path d="M663.221 192.796L691.456 218.113C692.047 218.643 692.983 218.572 693.462 217.928C699.18 210.304 697.629 198.875 689.651 191.722C681.674 184.569 670.147 184.266 663.186 190.782C662.601 191.33 662.629 192.265 663.221 192.796Z" fill="#FF6633"/>
<path d="M695.079 69.1119L665.715 45.1138C665.1 44.611 664.169 44.7247 663.719 45.3898C658.356 53.2682 660.429 64.6141 668.725 71.3942C677.021 78.1743 688.551 77.9497 695.206 71.1224C695.765 70.5474 695.694 69.6147 695.079 69.1119Z" fill="#FF6633"/>
<path d="M504.597 152.597L531.305 125.675C531.865 125.111 531.841 124.173 531.222 123.662C523.896 117.567 512.403 118.54 504.857 126.146C497.311 133.753 496.427 145.25 502.583 152.53C503.102 153.143 504.037 153.161 504.597 152.597Z" fill="#FF6633"/>
<path d="M498.915 91.3229C493.347 91.9142 487.872 83.3391 486.686 72.1699C485.5 61.0007 489.052 51.4669 494.62 50.8756C500.188 50.2843 505.663 58.8594 506.849 70.0286C508.035 81.1978 504.483 90.7316 498.915 91.3229Z" fill="#FCA21C"/>
<path d="M684.571 110.581C690.139 109.99 695.614 118.565 696.8 129.734C697.986 140.903 694.434 150.437 688.867 151.029C683.299 151.62 677.824 143.045 676.637 131.876C675.451 120.706 679.003 111.173 684.571 110.581Z" fill="#FCA21C"/>
<path d="M623.855 4.90633C627.476 7.509 625.097 17.0123 618.541 26.1326C611.985 35.2529 603.735 40.5364 600.115 37.9337C596.494 35.3311 598.873 25.8278 605.429 16.7075C611.985 7.58721 620.235 2.30366 623.855 4.90633Z" fill="#FCA21C"/>
<path d="M569.977 159.895C565.545 159.412 562.937 149.969 564.153 138.803C565.369 127.637 569.948 118.977 574.381 119.459C578.814 119.942 581.422 129.385 580.206 140.551C578.99 151.717 574.41 160.378 569.977 159.895Z" fill="#FCA21C"/>
<path fill-rule="evenodd" clip-rule="evenodd" d="M572.33 64.6266C574.184 67.2202 573.584 70.8213 570.988 72.67C565.143 76.833 557.277 78.069 549.827 75.6484C542.377 73.2277 536.741 67.6034 534.459 60.8016C533.445 57.7804 535.076 54.5139 538.101 53.5056C541.126 52.4972 544.399 54.129 545.413 57.1501C546.49 60.3598 549.299 63.3519 553.39 64.6812C557.483 66.0108 561.514 65.2415 564.271 63.2779C566.867 61.4292 570.475 62.0331 572.33 64.6266Z" fill="#70C05B"/>
<path fill-rule="evenodd" clip-rule="evenodd" d="M614.578 135.599C612.723 133.006 613.323 129.404 615.919 127.556C621.764 123.393 629.63 122.157 637.08 124.577C644.53 126.998 650.166 132.622 652.448 139.424C653.462 142.445 651.831 145.712 648.807 146.72C645.782 147.729 642.508 146.097 641.494 143.076C640.417 139.866 637.608 136.874 633.517 135.545C629.424 134.215 625.393 134.984 622.636 136.948C620.04 138.797 616.433 138.193 614.578 135.599Z" fill="#70C05B"/>
<path fill-rule="evenodd" clip-rule="evenodd" d="M672.272 -0.775622C671.762 -3.92318 673.9 -6.88277 677.047 -7.38604C684.133 -8.51935 691.729 -6.13255 697.329 -0.654418C702.928 4.8238 705.479 12.3663 704.502 19.4738C704.068 22.6308 701.156 24.8331 697.998 24.3928C694.84 23.9525 692.632 21.0363 693.066 17.8793C693.527 14.5254 692.339 10.5967 689.264 7.58847C686.189 4.57932 682.235 3.47773 678.893 4.01229C675.746 4.51556 672.782 2.37194 672.272 -0.775622Z" fill="#70C05B"/>
<path fill-rule="evenodd" clip-rule="evenodd" d="M582.699 200.053C584.953 202.308 584.951 205.959 582.693 208.207C577.608 213.271 570.051 215.779 562.305 214.611C554.559 213.443 548.078 208.817 544.713 202.481C543.219 199.666 544.292 196.177 547.111 194.687C549.93 193.197 553.427 194.27 554.922 197.085C556.51 200.075 559.771 202.567 564.024 203.208C568.279 203.85 572.13 202.431 574.529 200.042C576.787 197.793 580.445 197.798 582.699 200.053Z" fill="#70C05B"/>
<path d="M548.724 3.95803C547.22 1.71704 547.819 -1.31813 550.06 -2.82121L573.797 -18.7424C576.038 -20.2455 579.073 -19.6473 580.576 -17.4063L585.271 -10.4068C586.774 -8.16586 586.176 -5.13069 583.935 -3.62761L560.197 12.2936C557.956 13.7967 554.921 13.1985 553.418 10.9575L548.724 3.95803Z" fill="#1CB9FC"/>
<path d="M602.358 177.491C601.782 174.854 603.453 172.251 606.089 171.675L634.013 165.579C636.65 165.003 639.253 166.674 639.829 169.31L641.627 177.544C642.202 180.18 640.532 182.784 637.895 183.36L609.971 189.456C607.335 190.032 604.731 188.361 604.155 185.725L602.358 177.491Z" fill="#1CB9FC"/>
<path d="M630.497 99.1414C628.483 100.938 625.394 100.761 623.598 98.7476L604.572 77.4178C602.776 75.4041 602.952 72.3156 604.966 70.5194L611.256 64.9092C613.269 63.113 616.358 63.2893 618.154 65.303L637.18 86.6328C638.976 88.6465 638.8 91.735 636.786 93.5312L630.497 99.1414Z" fill="#1CB9FC"/>
<path d="M497.659 173.558C500.319 173.101 502.845 174.887 503.301 177.547L508.137 205.717C508.593 208.376 506.808 210.902 504.148 211.359L495.842 212.785C493.182 213.241 490.656 211.455 490.199 208.796L485.364 180.626C484.907 177.966 486.693 175.44 489.353 174.984L497.659 173.558Z" fill="#1CB9FC"/>
<path d="M769.039 19.9929L740.804 -5.32392C740.212 -5.85435 739.277 -5.78332 738.798 -5.13954C733.079 2.48521 734.631 13.9141 742.608 21.0668C750.585 28.2194 762.113 28.5227 769.074 22.0071C769.659 21.4583 769.63 20.5233 769.039 19.9929Z" fill="#FF6633"/>
<path d="M915.221 192.796L943.456 218.113C944.047 218.643 944.983 218.572 945.462 217.928C951.18 210.304 949.629 198.875 941.651 191.722C933.674 184.569 922.147 184.266 915.186 190.782C914.601 191.33 914.629 192.265 915.221 192.796Z" fill="#FF6633"/>
<path d="M947.079 69.1119L917.715 45.1138C917.1 44.611 916.169 44.7247 915.719 45.3898C910.356 53.2682 912.429 64.6141 920.725 71.3942C929.021 78.1743 940.551 77.9497 947.206 71.1224C947.765 70.5474 947.694 69.6147 947.079 69.1119Z" fill="#FF6633"/>
<path d="M756.597 152.597L783.305 125.675C783.865 125.111 783.841 124.173 783.222 123.662C775.896 117.567 764.403 118.54 756.857 126.146C749.311 133.753 748.427 145.25 754.583 152.53C755.102 153.143 756.037 153.161 756.597 152.597Z" fill="#FF6633"/>
<path d="M750.915 91.3229C745.347 91.9142 739.872 83.3391 738.686 72.1699C737.5 61.0007 741.052 51.4669 746.62 50.8756C752.188 50.2843 757.663 58.8594 758.849 70.0286C760.035 81.1978 756.483 90.7316 750.915 91.3229Z" fill="#FCA21C"/>
<path d="M936.571 110.581C942.139 109.99 947.614 118.565 948.8 129.734C949.986 140.903 946.434 150.437 940.867 151.029C935.299 151.62 929.824 143.045 928.637 131.876C927.451 120.706 931.003 111.173 936.571 110.581Z" fill="#FCA21C"/>
<path d="M875.855 4.90633C879.476 7.509 877.097 17.0123 870.541 26.1326C863.985 35.2529 855.735 40.5364 852.115 37.9337C848.494 35.3311 850.873 25.8278 857.429 16.7075C863.985 7.58721 872.235 2.30366 875.855 4.90633Z" fill="#FCA21C"/>
<path d="M821.977 159.895C817.545 159.412 814.937 149.969 816.153 138.803C817.369 127.637 821.948 118.977 826.381 119.459C830.814 119.942 833.422 129.385 832.206 140.551C830.99 151.717 826.41 160.378 821.977 159.895Z" fill="#FCA21C"/>
<path fill-rule="evenodd" clip-rule="evenodd" d="M824.33 64.6266C826.184 67.2202 825.584 70.8213 822.988 72.67C817.143 76.833 809.277 78.069 801.827 75.6484C794.377 73.2277 788.741 67.6034 786.459 60.8016C785.445 57.7804 787.076 54.5139 790.101 53.5056C793.126 52.4972 796.399 54.129 797.413 57.1501C798.49 60.3598 801.299 63.3519 805.39 64.6812C809.483 66.0108 813.514 65.2415 816.271 63.2779C818.867 61.4292 822.475 62.0331 824.33 64.6266Z" fill="#70C05B"/>
<path fill-rule="evenodd" clip-rule="evenodd" d="M866.578 135.599C864.723 133.006 865.323 129.404 867.919 127.556C873.764 123.393 881.63 122.157 889.08 124.577C896.53 126.998 902.166 132.622 904.448 139.424C905.462 142.445 903.831 145.712 900.807 146.72C897.782 147.729 894.508 146.097 893.494 143.076C892.417 139.866 889.608 136.874 885.517 135.545C881.424 134.215 877.393 134.984 874.636 136.948C872.04 138.797 868.433 138.193 866.578 135.599Z" fill="#70C05B"/>
<path fill-rule="evenodd" clip-rule="evenodd" d="M924.272 -0.775622C923.762 -3.92318 925.9 -6.88277 929.047 -7.38604C936.133 -8.51935 943.729 -6.13255 949.329 -0.654418C954.928 4.8238 957.479 12.3663 956.502 19.4738C956.068 22.6308 953.156 24.8331 949.998 24.3928C946.84 23.9525 944.632 21.0363 945.066 17.8793C945.527 14.5254 944.339 10.5967 941.264 7.58847C938.189 4.57932 934.235 3.47773 930.893 4.01229C927.746 4.51556 924.782 2.37194 924.272 -0.775622Z" fill="#70C05B"/>
<path fill-rule="evenodd" clip-rule="evenodd" d="M834.699 200.053C836.953 202.308 836.951 205.959 834.693 208.207C829.608 213.271 822.051 215.779 814.305 214.611C806.559 213.443 800.078 208.817 796.713 202.481C795.219 199.666 796.292 196.177 799.111 194.687C801.93 193.197 805.427 194.27 806.922 197.085C808.51 200.075 811.771 202.567 816.024 203.208C820.279 203.85 824.13 202.431 826.529 200.042C828.787 197.793 832.445 197.798 834.699 200.053Z" fill="#70C05B"/>
<path d="M800.724 3.95803C799.22 1.71704 799.819 -1.31813 802.06 -2.82121L825.797 -18.7424C828.038 -20.2455 831.073 -19.6473 832.576 -17.4063L837.271 -10.4068C838.774 -8.16586 838.176 -5.13069 835.935 -3.62761L812.197 12.2936C809.956 13.7967 806.921 13.1985 805.418 10.9575L800.724 3.95803Z" fill="#1CB9FC"/>
<path d="M854.358 177.491C853.782 174.854 855.453 172.251 858.089 171.675L886.013 165.579C888.65 165.003 891.253 166.674 891.829 169.31L893.627 177.544C894.202 180.18 892.532 182.784 889.895 183.36L861.971 189.456C859.335 190.032 856.731 188.361 856.155 185.725L854.358 177.491Z" fill="#1CB9FC"/>
<path d="M882.497 99.1414C880.483 100.938 877.394 100.761 875.598 98.7476L856.572 77.4178C854.776 75.4041 854.952 72.3156 856.966 70.5194L863.256 64.9092C865.269 63.113 868.358 63.2893 870.154 65.303L889.18 86.6328C890.976 88.6465 890.8 91.735 888.786 93.5312L882.497 99.1414Z" fill="#1CB9FC"/>
<path d="M749.659 173.558C752.319 173.101 754.845 174.887 755.301 177.547L760.137 205.717C760.593 208.376 758.808 210.902 756.148 211.359L747.842 212.785C745.182 213.241 742.656 211.455 742.199 208.796L737.364 180.626C736.907 177.966 738.693 175.44 741.353 174.984L749.659 173.558Z" fill="#1CB9FC"/>
<path d="M1021.04 19.9929L992.804 -5.32392C992.212 -5.85435 991.277 -5.78332 990.798 -5.13954C985.079 2.48521 986.631 13.9141 994.608 21.0668C1002.59 28.2194 1014.11 28.5227 1021.07 22.0071C1021.66 21.4583 1021.63 20.5233 1021.04 19.9929Z" fill="#FF6633"/>
<path d="M1167.22 192.796L1195.46 218.113C1196.05 218.643 1196.98 218.572 1197.46 217.928C1203.18 210.304 1201.63 198.875 1193.65 191.722C1185.67 184.569 1174.15 184.266 1167.19 190.782C1166.6 191.33 1166.63 192.265 1167.22 192.796Z" fill="#FF6633"/>
<path d="M1199.08 69.1119L1169.71 45.1138C1169.1 44.611 1168.17 44.7247 1167.72 45.3898C1162.36 53.2682 1164.43 64.6141 1172.73 71.3942C1181.02 78.1743 1192.55 77.9497 1199.21 71.1224C1199.77 70.5474 1199.69 69.6147 1199.08 69.1119Z" fill="#FF6633"/>
<path d="M1008.6 152.597L1035.31 125.675C1035.86 125.111 1035.84 124.173 1035.22 123.662C1027.9 117.567 1016.4 118.54 1008.86 126.146C1001.31 133.753 1000.43 145.25 1006.58 152.53C1007.1 153.143 1008.04 153.161 1008.6 152.597Z" fill="#FF6633"/>
<path d="M1002.92 91.3229C997.347 91.9142 991.872 83.3391 990.686 72.1699C989.5 61.0007 993.052 51.4669 998.62 50.8756C1004.19 50.2843 1009.66 58.8594 1010.85 70.0286C1012.04 81.1978 1008.48 90.7316 1002.92 91.3229Z" fill="#FCA21C"/>
<path d="M1188.57 110.581C1194.14 109.99 1199.61 118.565 1200.8 129.734C1201.99 140.903 1198.43 150.437 1192.87 151.029C1187.3 151.62 1181.82 143.045 1180.64 131.876C1179.45 120.706 1183 111.173 1188.57 110.581Z" fill="#FCA21C"/>
<path d="M1127.86 4.90633C1131.48 7.509 1129.1 17.0123 1122.54 26.1326C1115.99 35.2529 1107.74 40.5364 1104.11 37.9337C1100.49 35.3311 1102.87 25.8278 1109.43 16.7075C1115.98 7.58721 1124.23 2.30366 1127.86 4.90633Z" fill="#FCA21C"/>
<path d="M1073.98 159.895C1069.54 159.412 1066.94 149.969 1068.15 138.803C1069.37 127.637 1073.95 118.977 1078.38 119.459C1082.81 119.942 1085.42 129.385 1084.21 140.551C1082.99 151.717 1078.41 160.378 1073.98 159.895Z" fill="#FCA21C"/>
<path fill-rule="evenodd" clip-rule="evenodd" d="M1076.33 64.6266C1078.18 67.2202 1077.58 70.8213 1074.99 72.67C1069.14 76.833 1061.28 78.069 1053.83 75.6484C1046.38 73.2277 1040.74 67.6034 1038.46 60.8016C1037.45 57.7804 1039.08 54.5139 1042.1 53.5056C1045.13 52.4972 1048.4 54.129 1049.41 57.1501C1050.49 60.3598 1053.3 63.3519 1057.39 64.6812C1061.48 66.0108 1065.51 65.2415 1068.27 63.2779C1070.87 61.4292 1074.47 62.0331 1076.33 64.6266Z" fill="#70C05B"/>
<path fill-rule="evenodd" clip-rule="evenodd" d="M1118.58 135.599C1116.72 133.006 1117.32 129.404 1119.92 127.556C1125.76 123.393 1133.63 122.157 1141.08 124.577C1148.53 126.998 1154.17 132.622 1156.45 139.424C1157.46 142.445 1155.83 145.712 1152.81 146.72C1149.78 147.729 1146.51 146.097 1145.49 143.076C1144.42 139.866 1141.61 136.874 1137.52 135.545C1133.42 134.215 1129.39 134.984 1126.64 136.948C1124.04 138.797 1120.43 138.193 1118.58 135.599Z" fill="#70C05B"/>
<path fill-rule="evenodd" clip-rule="evenodd" d="M1176.27 -0.775622C1175.76 -3.92318 1177.9 -6.88277 1181.05 -7.38604C1188.13 -8.51935 1195.73 -6.13255 1201.33 -0.654418C1206.93 4.8238 1209.48 12.3663 1208.5 19.4738C1208.07 22.6308 1205.16 24.8331 1202 24.3928C1198.84 23.9525 1196.63 21.0363 1197.07 17.8793C1197.53 14.5254 1196.34 10.5967 1193.26 7.58847C1190.19 4.57932 1186.23 3.47773 1182.89 4.01229C1179.75 4.51556 1176.78 2.37194 1176.27 -0.775622Z" fill="#70C05B"/>
<path fill-rule="evenodd" clip-rule="evenodd" d="M1086.7 200.053C1088.95 202.308 1088.95 205.959 1086.69 208.207C1081.61 213.271 1074.05 215.779 1066.3 214.611C1058.56 213.443 1052.08 208.817 1048.71 202.481C1047.22 199.666 1048.29 196.177 1051.11 194.687C1053.93 193.197 1057.43 194.27 1058.92 197.085C1060.51 200.075 1063.77 202.567 1068.02 203.208C1072.28 203.85 1076.13 202.431 1078.53 200.042C1080.79 197.793 1084.44 197.798 1086.7 200.053Z" fill="#70C05B"/>
<path d="M1052.72 3.95803C1051.22 1.71704 1051.82 -1.31813 1054.06 -2.82121L1077.8 -18.7424C1080.04 -20.2455 1083.07 -19.6473 1084.58 -17.4063L1089.27 -10.4068C1090.77 -8.16586 1090.18 -5.13069 1087.93 -3.62761L1064.2 12.2936C1061.96 13.7967 1058.92 13.1985 1057.42 10.9575L1052.72 3.95803Z" fill="#1CB9FC"/>
<path d="M1106.36 177.491C1105.78 174.854 1107.45 172.251 1110.09 171.675L1138.01 165.579C1140.65 165.003 1143.25 166.674 1143.83 169.31L1145.63 177.544C1146.2 180.18 1144.53 182.784 1141.9 183.36L1113.97 189.456C1111.33 190.032 1108.73 188.361 1108.16 185.725L1106.36 177.491Z" fill="#1CB9FC"/>
<path d="M1134.5 99.1414C1132.48 100.938 1129.39 100.761 1127.6 98.7476L1108.57 77.4178C1106.78 75.4041 1106.95 72.3156 1108.97 70.5194L1115.26 64.9092C1117.27 63.113 1120.36 63.2893 1122.15 65.303L1141.18 86.6328C1142.98 88.6465 1142.8 91.735 1140.79 93.5312L1134.5 99.1414Z" fill="#1CB9FC"/>
<path d="M1001.66 173.558C1004.32 173.101 1006.84 174.887 1007.3 177.547L1012.14 205.717C1012.59 208.376 1010.81 210.902 1008.15 211.359L999.842 212.785C997.182 213.241 994.656 211.455 994.199 208.796L989.364 180.626C988.907 177.966 990.693 175.44 993.353 174.984L1001.66 173.558Z" fill="#1CB9FC"/>
<path d="M1273.04 19.9929L1244.8 -5.32392C1244.21 -5.85435 1243.28 -5.78332 1242.8 -5.13954C1237.08 2.48521 1238.63 13.9141 1246.61 21.0668C1254.59 28.2194 1266.11 28.5227 1273.07 22.0071C1273.66 21.4583 1273.63 20.5233 1273.04 19.9929Z" fill="#FF6633"/>
<path d="M1419.22 192.796L1447.46 218.113C1448.05 218.643 1448.98 218.572 1449.46 217.928C1455.18 210.304 1453.63 198.875 1445.65 191.722C1437.67 184.569 1426.15 184.266 1419.19 190.782C1418.6 191.33 1418.63 192.265 1419.22 192.796Z" fill="#FF6633"/>
<path d="M1451.08 69.1119L1421.71 45.1138C1421.1 44.611 1420.17 44.7247 1419.72 45.3898C1414.36 53.2682 1416.43 64.6141 1424.73 71.3942C1433.02 78.1743 1444.55 77.9497 1451.21 71.1224C1451.77 70.5474 1451.69 69.6147 1451.08 69.1119Z" fill="#FF6633"/>
<path d="M1260.6 152.597L1287.31 125.675C1287.86 125.111 1287.84 124.173 1287.22 123.662C1279.9 117.567 1268.4 118.54 1260.86 126.146C1253.31 133.753 1252.43 145.25 1258.58 152.53C1259.1 153.143 1260.04 153.161 1260.6 152.597Z" fill="#FF6633"/>
<path d="M1254.92 91.3229C1249.35 91.9142 1243.87 83.3391 1242.69 72.1699C1241.5 61.0007 1245.05 51.4669 1250.62 50.8756C1256.19 50.2843 1261.66 58.8594 1262.85 70.0286C1264.04 81.1978 1260.48 90.7316 1254.92 91.3229Z" fill="#FCA21C"/>
<path d="M1440.57 110.581C1446.14 109.99 1451.61 118.565 1452.8 129.734C1453.99 140.903 1450.43 150.437 1444.87 151.029C1439.3 151.62 1433.82 143.045 1432.64 131.876C1431.45 120.706 1435 111.173 1440.57 110.581Z" fill="#FCA21C"/>
<path d="M1379.86 4.90633C1383.48 7.509 1381.1 17.0123 1374.54 26.1326C1367.99 35.2529 1359.74 40.5364 1356.11 37.9337C1352.49 35.3311 1354.87 25.8278 1361.43 16.7075C1367.98 7.58721 1376.23 2.30366 1379.86 4.90633Z" fill="#FCA21C"/>
<path d="M1325.98 159.895C1321.54 159.412 1318.94 149.969 1320.15 138.803C1321.37 127.637 1325.95 118.977 1330.38 119.459C1334.81 119.942 1337.42 129.385 1336.21 140.551C1334.99 151.717 1330.41 160.378 1325.98 159.895Z" fill="#FCA21C"/>
<path fill-rule="evenodd" clip-rule="evenodd" d="M1328.33 64.6266C1330.18 67.2202 1329.58 70.8213 1326.99 72.67C1321.14 76.833 1313.28 78.069 1305.83 75.6484C1298.38 73.2277 1292.74 67.6034 1290.46 60.8016C1289.45 57.7804 1291.08 54.5139 1294.1 53.5056C1297.13 52.4972 1300.4 54.129 1301.41 57.1501C1302.49 60.3598 1305.3 63.3519 1309.39 64.6812C1313.48 66.0108 1317.51 65.2415 1320.27 63.2779C1322.87 61.4292 1326.47 62.0331 1328.33 64.6266Z" fill="#70C05B"/>
<path fill-rule="evenodd" clip-rule="evenodd" d="M1370.58 135.599C1368.72 133.006 1369.32 129.404 1371.92 127.556C1377.76 123.393 1385.63 122.157 1393.08 124.577C1400.53 126.998 1406.17 132.622 1408.45 139.424C1409.46 142.445 1407.83 145.712 1404.81 146.72C1401.78 147.729 1398.51 146.097 1397.49 143.076C1396.42 139.866 1393.61 136.874 1389.52 135.545C1385.42 134.215 1381.39 134.984 1378.64 136.948C1376.04 138.797 1372.43 138.193 1370.58 135.599Z" fill="#70C05B"/>
<path fill-rule="evenodd" clip-rule="evenodd" d="M1428.27 -0.775622C1427.76 -3.92318 1429.9 -6.88277 1433.05 -7.38604C1440.13 -8.51935 1447.73 -6.13255 1453.33 -0.654418C1458.93 4.8238 1461.48 12.3663 1460.5 19.4738C1460.07 22.6308 1457.16 24.8331 1454 24.3928C1450.84 23.9525 1448.63 21.0363 1449.07 17.8793C1449.53 14.5254 1448.34 10.5967 1445.26 7.58847C1442.19 4.57932 1438.23 3.47773 1434.89 4.01229C1431.75 4.51556 1428.78 2.37194 1428.27 -0.775622Z" fill="#70C05B"/>
<path fill-rule="evenodd" clip-rule="evenodd" d="M1338.7 200.053C1340.95 202.308 1340.95 205.959 1338.69 208.207C1333.61 213.271 1326.05 215.779 1318.3 214.611C1310.56 213.443 1304.08 208.817 1300.71 202.481C1299.22 199.666 1300.29 196.177 1303.11 194.687C1305.93 193.197 1309.43 194.27 1310.92 197.085C1312.51 200.075 1315.77 202.567 1320.02 203.208C1324.28 203.85 1328.13 202.431 1330.53 200.042C1332.79 197.793 1336.44 197.798 1338.7 200.053Z" fill="#70C05B"/>
<path d="M1304.72 3.95803C1303.22 1.71704 1303.82 -1.31813 1306.06 -2.82121L1329.8 -18.7424C1332.04 -20.2455 1335.07 -19.6473 1336.58 -17.4063L1341.27 -10.4068C1342.77 -8.16586 1342.18 -5.13069 1339.93 -3.62761L1316.2 12.2936C1313.96 13.7967 1310.92 13.1985 1309.42 10.9575L1304.72 3.95803Z" fill="#1CB9FC"/>
<path d="M1358.36 177.491C1357.78 174.854 1359.45 172.251 1362.09 171.675L1390.01 165.579C1392.65 165.003 1395.25 166.674 1395.83 169.31L1397.63 177.544C1398.2 180.18 1396.53 182.784 1393.9 183.36L1365.97 189.456C1363.33 190.032 1360.73 188.361 1360.16 185.725L1358.36 177.491Z" fill="#1CB9FC"/>
<path d="M1386.5 99.1414C1384.48 100.938 1381.39 100.761 1379.6 98.7476L1360.57 77.4178C1358.78 75.4041 1358.95 72.3156 1360.97 70.5194L1367.26 64.9092C1369.27 63.113 1372.36 63.2893 1374.15 65.303L1393.18 86.6328C1394.98 88.6465 1394.8 91.735 1392.79 93.5312L1386.5 99.1414Z" fill="#1CB9FC"/>
<path d="M1253.66 173.558C1256.32 173.101 1258.84 174.887 1259.3 177.547L1264.14 205.717C1264.59 208.376 1262.81 210.902 1260.15 211.359L1251.84 212.785C1249.18 213.241 1246.66 211.455 1246.2 208.796L1241.36 180.626C1240.91 177.966 1242.69 175.44 1245.35 174.984L1253.66 173.558Z" fill="#1CB9FC"/>
</g>
</svg>
