<svg width="127" height="103" viewBox="0 0 127 103" fill="none" xmlns="http://www.w3.org/2000/svg">
<path d="M113.09 54.4805H13.7718C11.689 54.4805 9.996 56.2457 10.1774 58.3197C12.3542 83.013 35.3648 102.444 63.4277 102.444C91.4906 102.444 114.501 83.013 116.678 58.3197C116.866 56.2457 115.173 54.4805 113.09 54.4805Z" fill="#FF6633"/>
<path d="M45.5036 17.5315C44.3951 17.5315 43.2933 17.0349 42.5744 16.0818C38.9464 11.3163 32.0533 8.34959 24.5892 8.34959C17.125 8.34959 10.2319 11.3096 6.6039 16.0818C5.37442 17.6993 3.06328 18.0081 1.45086 16.7798C-0.168285 15.5515 -0.477334 13.2426 0.75214 11.6317C5.81784 4.97348 14.7265 1 24.5892 1C34.4518 1 43.3605 4.97348 48.4329 11.6317C49.6624 13.2493 49.3466 15.5515 47.7342 16.7798C47.0623 17.2899 46.283 17.5315 45.5036 17.5315Z" fill="#414141"/>
<path d="M123.183 17.5315C122.075 17.5315 120.973 17.0349 120.254 16.0818C116.626 11.3163 109.733 8.34959 102.269 8.34959C94.8047 8.34959 87.9115 11.3096 84.2836 16.0818C83.0541 17.6993 80.743 18.0081 79.1305 16.7798C77.5114 15.5515 77.2024 13.2426 78.4318 11.6317C83.4975 4.97348 92.4062 1 102.269 1C112.132 1 121.04 4.97348 126.113 11.6317C127.342 13.2493 127.026 15.5515 125.414 16.7798C124.742 17.2899 123.963 17.5315 123.183 17.5315Z" fill="#414141"/>
</svg>
