<svg width="768" height="120" viewBox="0 0 768 120" fill="none" xmlns="http://www.w3.org/2000/svg">
<g opacity="0.5">
<path d="M24.13 22.6312L10.2366 10.1737C9.94548 9.91272 9.48533 9.94767 9.24945 10.2644C6.43569 14.0163 7.19926 19.6401 11.1245 23.1596C15.0497 26.6792 20.722 26.8284 24.1471 23.6223C24.4351 23.3523 24.4211 22.8922 24.13 22.6312Z" fill="white"/>
<path d="M96.0614 107.661L109.955 120.119C110.246 120.38 110.706 120.345 110.942 120.028C113.756 116.276 112.992 110.652 109.067 107.133C105.142 103.613 99.4694 103.464 96.0444 106.67C95.7564 106.94 95.7703 107.4 96.0614 107.661Z" fill="white"/>
<path d="M111.737 46.8011L97.288 34.9925C96.9852 34.7451 96.5272 34.801 96.306 35.1283C93.6669 39.005 94.6871 44.5879 98.7693 47.9241C102.851 51.2603 108.525 51.1498 111.799 47.7904C112.075 47.5074 112.04 47.0485 111.737 46.8011Z" fill="white"/>
<path d="M18.0077 87.881L31.1501 74.6335C31.4254 74.356 31.4137 73.8947 31.1092 73.6431C27.504 70.6437 21.8489 71.1227 18.1359 74.8654C14.4229 78.6082 13.9878 84.2657 17.017 87.8481C17.2722 88.1493 17.7324 88.1586 18.0077 87.881Z" fill="white"/>
<path d="M15.2126 57.7303C12.4728 58.0212 9.77868 53.8017 9.19499 48.3058C8.61131 42.8098 10.3591 38.1186 13.0989 37.8276C15.8386 37.5367 18.5327 41.7561 19.1164 47.2521C19.7001 52.7481 17.9523 57.4393 15.2126 57.7303Z" fill="white"/>
<path d="M106.567 67.2067C109.306 66.9158 112.001 71.1353 112.584 76.6312C113.168 82.1272 111.42 86.8184 108.68 87.1094C105.941 87.4004 103.247 83.1809 102.663 77.6849C102.079 72.1889 103.827 67.4977 106.567 67.2067Z" fill="white"/>
<path d="M76.6911 15.2079C78.4728 16.4886 77.302 21.1648 74.0761 25.6526C70.8502 30.1403 66.7908 32.7402 65.0091 31.4595C63.2275 30.1788 64.3983 25.5026 67.6242 21.0148C70.8501 16.5271 74.9095 13.9272 76.6911 15.2079Z" fill="white"/>
<path d="M50.1797 91.4722C47.9984 91.2347 46.7151 86.588 47.3135 81.0937C47.9118 75.5993 50.1651 71.3377 52.3464 71.5753C54.5276 71.8128 55.8109 76.4594 55.2125 81.9538C54.6142 87.4482 52.3609 91.7097 50.1797 91.4722Z" fill="white"/>
<path fill-rule="evenodd" clip-rule="evenodd" d="M51.3372 44.5939C52.2499 45.8701 51.9544 47.6421 50.6772 48.5517C47.801 50.6002 43.9305 51.2084 40.2645 50.0173C36.5985 48.8261 33.8253 46.0586 32.7024 42.7117C32.2037 41.2251 33.006 39.6178 34.4944 39.1216C35.9829 38.6254 37.5938 39.4284 38.0926 40.915C38.6225 42.4943 40.0049 43.9666 42.0179 44.6207C44.0317 45.275 46.0154 44.8964 47.372 43.9302C48.6492 43.0206 50.4245 43.3177 51.3372 44.5939Z" fill="white"/>
<path fill-rule="evenodd" clip-rule="evenodd" d="M72.1247 79.5169C71.212 78.2407 71.5075 76.4688 72.7847 75.5591C75.6609 73.5106 79.5315 72.9024 83.1974 74.0935C86.8634 75.2847 89.6366 78.0522 90.7595 81.3991C91.2583 82.8857 90.456 84.4931 88.9675 84.9892C87.479 85.4854 85.8681 84.6825 85.3693 83.1959C84.8394 81.6165 83.457 80.1442 81.444 79.4901C79.4303 78.8358 77.4465 79.2144 76.0899 80.1806C74.8127 81.0903 73.0374 80.7931 72.1247 79.5169Z" fill="white"/>
<path fill-rule="evenodd" clip-rule="evenodd" d="M100.515 12.4119C100.264 10.8631 101.316 9.4068 102.864 9.15916C106.351 8.6015 110.089 9.77595 112.844 12.4715C115.599 15.1672 116.855 18.8785 116.374 22.3759C116.16 23.9294 114.728 25.013 113.174 24.7964C111.62 24.5797 110.533 23.1447 110.747 21.5913C110.973 19.941 110.389 18.0078 108.876 16.5276C107.362 15.0469 105.417 14.5048 103.772 14.7679C102.224 15.0155 100.766 13.9607 100.515 12.4119Z" fill="white"/>
<path fill-rule="evenodd" clip-rule="evenodd" d="M56.4382 111.232C57.5476 112.342 57.5462 114.138 56.4352 115.245C53.9333 117.736 50.2145 118.97 46.403 118.395C42.5915 117.821 39.4025 115.545 37.7468 112.427C37.0113 111.042 37.5396 109.325 38.9267 108.592C40.3138 107.858 42.0345 108.387 42.77 109.772C43.5513 111.243 45.1562 112.469 47.2491 112.785C49.3428 113.1 51.2378 112.402 52.4179 111.227C53.5289 110.12 55.3289 110.123 56.4382 111.232Z" fill="white"/>
<path d="M39.721 14.7413C38.9814 13.6386 39.2758 12.1451 40.3785 11.4054L52.0587 3.5712C53.1615 2.83159 54.6549 3.12593 55.3946 4.22864L57.7047 7.67283C58.4443 8.77554 58.1499 10.269 57.0472 11.0086L45.3669 18.8429C44.2642 19.5825 42.7707 19.2882 42.0311 18.1854L39.721 14.7413Z" fill="white"/>
<path d="M66.1124 100.131C65.8292 98.8333 66.6512 97.5521 67.9484 97.2689L81.6891 94.269C82.9863 93.9858 84.2675 94.8078 84.5507 96.1051L85.4353 100.157C85.7185 101.454 84.8965 102.735 83.5992 103.018L69.8586 106.018C68.5614 106.302 67.2802 105.48 66.997 104.182L66.1124 100.131Z" fill="white"/>
<path d="M79.9582 61.5774C78.9673 62.4612 77.4476 62.3745 76.5637 61.3836L67.2017 50.888C66.3179 49.8971 66.4047 48.3774 67.3955 47.4935L70.4904 44.733C71.4813 43.8491 73.001 43.9359 73.8848 44.9267L83.2468 55.4224C84.1307 56.4132 84.0439 57.933 83.053 58.8168L79.9582 61.5774Z" fill="white"/>
<path d="M14.5934 98.1953C15.902 97.9707 17.145 98.8494 17.3696 100.158L19.7491 114.02C19.9738 115.328 19.095 116.571 17.7864 116.796L13.699 117.497C12.3904 117.722 11.1474 116.843 10.9227 115.535L8.54327 101.673C8.31863 100.365 9.19738 99.1216 10.506 98.897L14.5934 98.1953Z" fill="white"/>
<path d="M148.13 22.6312L134.237 10.1737C133.945 9.91272 133.485 9.94767 133.249 10.2644C130.436 14.0163 131.199 19.6401 135.124 23.1596C139.05 26.6792 144.722 26.8284 148.147 23.6223C148.435 23.3523 148.421 22.8922 148.13 22.6312Z" fill="white"/>
<path d="M220.061 107.661L233.955 120.119C234.246 120.38 234.706 120.345 234.942 120.028C237.756 116.276 236.992 110.652 233.067 107.133C229.142 103.613 223.469 103.464 220.044 106.67C219.756 106.94 219.77 107.4 220.061 107.661Z" fill="white"/>
<path d="M235.737 46.8011L221.288 34.9925C220.985 34.7451 220.527 34.801 220.306 35.1283C217.667 39.005 218.687 44.5879 222.769 47.9241C226.851 51.2603 232.525 51.1498 235.799 47.7904C236.075 47.5074 236.04 47.0485 235.737 46.8011Z" fill="white"/>
<path d="M142.008 87.881L155.15 74.6335C155.425 74.356 155.414 73.8947 155.109 73.6431C151.504 70.6437 145.849 71.1227 142.136 74.8654C138.423 78.6082 137.988 84.2657 141.017 87.8481C141.272 88.1493 141.732 88.1586 142.008 87.881Z" fill="white"/>
<path d="M139.213 57.7303C136.473 58.0212 133.779 53.8017 133.195 48.3058C132.611 42.8098 134.359 38.1186 137.099 37.8276C139.839 37.5367 142.533 41.7561 143.116 47.2521C143.7 52.7481 141.952 57.4393 139.213 57.7303Z" fill="white"/>
<path d="M230.567 67.2067C233.306 66.9158 236.001 71.1353 236.584 76.6312C237.168 82.1272 235.42 86.8184 232.68 87.1094C229.941 87.4004 227.247 83.1809 226.663 77.6849C226.079 72.1889 227.827 67.4977 230.567 67.2067Z" fill="white"/>
<path d="M200.691 15.2079C202.473 16.4886 201.302 21.1648 198.076 25.6526C194.85 30.1403 190.791 32.7402 189.009 31.4595C187.228 30.1788 188.398 25.5026 191.624 21.0148C194.85 16.5271 198.91 13.9272 200.691 15.2079Z" fill="white"/>
<path d="M174.18 91.4722C171.998 91.2347 170.715 86.588 171.313 81.0937C171.912 75.5993 174.165 71.3377 176.346 71.5753C178.528 71.8128 179.811 76.4594 179.213 81.9538C178.614 87.4482 176.361 91.7097 174.18 91.4722Z" fill="white"/>
<path fill-rule="evenodd" clip-rule="evenodd" d="M175.337 44.5939C176.25 45.8701 175.954 47.6421 174.677 48.5517C171.801 50.6002 167.93 51.2084 164.265 50.0173C160.599 48.8261 157.825 46.0586 156.702 42.7117C156.204 41.2251 157.006 39.6178 158.494 39.1216C159.983 38.6254 161.594 39.4284 162.093 40.915C162.622 42.4943 164.005 43.9666 166.018 44.6207C168.032 45.275 170.015 44.8964 171.372 43.9302C172.649 43.0206 174.424 43.3177 175.337 44.5939Z" fill="white"/>
<path fill-rule="evenodd" clip-rule="evenodd" d="M196.125 79.5169C195.212 78.2407 195.508 76.4688 196.785 75.5591C199.661 73.5106 203.531 72.9024 207.197 74.0935C210.863 75.2847 213.637 78.0522 214.76 81.3991C215.258 82.8857 214.456 84.4931 212.967 84.9892C211.479 85.4854 209.868 84.6825 209.369 83.1959C208.839 81.6165 207.457 80.1442 205.444 79.4901C203.43 78.8358 201.447 79.2144 200.09 80.1806C198.813 81.0903 197.037 80.7931 196.125 79.5169Z" fill="white"/>
<path fill-rule="evenodd" clip-rule="evenodd" d="M224.515 12.4119C224.264 10.8631 225.316 9.4068 226.864 9.15916C230.351 8.6015 234.089 9.77595 236.844 12.4715C239.599 15.1672 240.855 18.8785 240.374 22.3759C240.16 23.9294 238.728 25.013 237.174 24.7964C235.62 24.5797 234.533 23.1447 234.747 21.5913C234.973 19.941 234.389 18.0078 232.876 16.5276C231.362 15.0469 229.417 14.5048 227.772 14.7679C226.224 15.0155 224.766 13.9607 224.515 12.4119Z" fill="white"/>
<path fill-rule="evenodd" clip-rule="evenodd" d="M180.438 111.232C181.548 112.342 181.546 114.138 180.435 115.245C177.933 117.736 174.215 118.97 170.403 118.395C166.591 117.821 163.403 115.545 161.747 112.427C161.011 111.042 161.54 109.325 162.927 108.592C164.314 107.858 166.035 108.387 166.77 109.772C167.551 111.243 169.156 112.469 171.249 112.785C173.343 113.1 175.238 112.402 176.418 111.227C177.529 110.12 179.329 110.123 180.438 111.232Z" fill="white"/>
<path d="M163.721 14.7413C162.981 13.6386 163.276 12.1451 164.378 11.4054L176.059 3.5712C177.161 2.83159 178.655 3.12593 179.395 4.22864L181.705 7.67283C182.444 8.77554 182.15 10.269 181.047 11.0086L169.367 18.8429C168.264 19.5825 166.771 19.2882 166.031 18.1854L163.721 14.7413Z" fill="white"/>
<path d="M190.112 100.131C189.829 98.8333 190.651 97.5521 191.948 97.2689L205.689 94.269C206.986 93.9858 208.267 94.8078 208.551 96.1051L209.435 100.157C209.718 101.454 208.896 102.735 207.599 103.018L193.859 106.018C192.561 106.302 191.28 105.48 190.997 104.182L190.112 100.131Z" fill="white"/>
<path d="M203.958 61.5774C202.967 62.4612 201.448 62.3745 200.564 61.3836L191.202 50.888C190.318 49.8971 190.405 48.3774 191.396 47.4935L194.49 44.733C195.481 43.8491 197.001 43.9359 197.885 44.9267L207.247 55.4224C208.131 56.4132 208.044 57.933 207.053 58.8168L203.958 61.5774Z" fill="white"/>
<path d="M138.593 98.1953C139.902 97.9707 141.145 98.8494 141.37 100.158L143.749 114.02C143.974 115.328 143.095 116.571 141.786 116.796L137.699 117.497C136.39 117.722 135.147 116.843 134.923 115.535L132.543 101.673C132.319 100.365 133.197 99.1216 134.506 98.897L138.593 98.1953Z" fill="white"/>
<path d="M272.13 22.6312L258.237 10.1737C257.945 9.91272 257.485 9.94767 257.249 10.2644C254.436 14.0163 255.199 19.6401 259.124 23.1596C263.05 26.6792 268.722 26.8284 272.147 23.6223C272.435 23.3523 272.421 22.8922 272.13 22.6312Z" fill="white"/>
<path d="M344.061 107.661L357.955 120.119C358.246 120.38 358.706 120.345 358.942 120.028C361.756 116.276 360.992 110.652 357.067 107.133C353.142 103.613 347.469 103.464 344.044 106.67C343.756 106.94 343.77 107.4 344.061 107.661Z" fill="white"/>
<path d="M359.737 46.8011L345.288 34.9925C344.985 34.7451 344.527 34.801 344.306 35.1283C341.667 39.005 342.687 44.5879 346.769 47.9241C350.851 51.2603 356.525 51.1498 359.799 47.7904C360.075 47.5074 360.04 47.0485 359.737 46.8011Z" fill="white"/>
<path d="M266.008 87.881L279.15 74.6335C279.425 74.356 279.414 73.8947 279.109 73.6431C275.504 70.6437 269.849 71.1227 266.136 74.8654C262.423 78.6082 261.988 84.2657 265.017 87.8481C265.272 88.1493 265.732 88.1586 266.008 87.881Z" fill="white"/>
<path d="M263.213 57.7303C260.473 58.0212 257.779 53.8017 257.195 48.3058C256.611 42.8098 258.359 38.1186 261.099 37.8276C263.839 37.5367 266.533 41.7561 267.116 47.2521C267.7 52.7481 265.952 57.4393 263.213 57.7303Z" fill="white"/>
<path d="M354.567 67.2067C357.306 66.9158 360.001 71.1353 360.584 76.6312C361.168 82.1272 359.42 86.8184 356.68 87.1094C353.941 87.4004 351.247 83.1809 350.663 77.6849C350.079 72.1889 351.827 67.4977 354.567 67.2067Z" fill="white"/>
<path d="M324.691 15.2079C326.473 16.4886 325.302 21.1648 322.076 25.6526C318.85 30.1403 314.791 32.7402 313.009 31.4595C311.228 30.1788 312.398 25.5026 315.624 21.0148C318.85 16.5271 322.91 13.9272 324.691 15.2079Z" fill="white"/>
<path d="M298.18 91.4722C295.998 91.2347 294.715 86.588 295.313 81.0937C295.912 75.5993 298.165 71.3377 300.346 71.5753C302.528 71.8128 303.811 76.4594 303.213 81.9538C302.614 87.4482 300.361 91.7097 298.18 91.4722Z" fill="white"/>
<path fill-rule="evenodd" clip-rule="evenodd" d="M299.337 44.5939C300.25 45.8701 299.954 47.6421 298.677 48.5517C295.801 50.6002 291.93 51.2084 288.265 50.0173C284.599 48.8261 281.825 46.0586 280.702 42.7117C280.204 41.2251 281.006 39.6178 282.494 39.1216C283.983 38.6254 285.594 39.4284 286.093 40.915C286.622 42.4943 288.005 43.9666 290.018 44.6207C292.032 45.275 294.015 44.8964 295.372 43.9302C296.649 43.0206 298.424 43.3177 299.337 44.5939Z" fill="white"/>
<path fill-rule="evenodd" clip-rule="evenodd" d="M320.125 79.5169C319.212 78.2407 319.508 76.4688 320.785 75.5591C323.661 73.5106 327.531 72.9024 331.197 74.0935C334.863 75.2847 337.637 78.0522 338.76 81.3991C339.258 82.8857 338.456 84.4931 336.967 84.9892C335.479 85.4854 333.868 84.6825 333.369 83.1959C332.839 81.6165 331.457 80.1442 329.444 79.4901C327.43 78.8358 325.447 79.2144 324.09 80.1806C322.813 81.0903 321.037 80.7931 320.125 79.5169Z" fill="white"/>
<path fill-rule="evenodd" clip-rule="evenodd" d="M348.515 12.4119C348.264 10.8631 349.316 9.4068 350.864 9.15916C354.351 8.6015 358.089 9.77595 360.844 12.4715C363.599 15.1672 364.855 18.8785 364.374 22.3759C364.16 23.9294 362.728 25.013 361.174 24.7964C359.62 24.5797 358.533 23.1447 358.747 21.5913C358.973 19.941 358.389 18.0078 356.876 16.5276C355.362 15.0469 353.417 14.5048 351.772 14.7679C350.224 15.0155 348.766 13.9607 348.515 12.4119Z" fill="white"/>
<path fill-rule="evenodd" clip-rule="evenodd" d="M304.438 111.232C305.548 112.342 305.546 114.138 304.435 115.245C301.933 117.736 298.215 118.97 294.403 118.395C290.591 117.821 287.403 115.545 285.747 112.427C285.011 111.042 285.54 109.325 286.927 108.592C288.314 107.858 290.035 108.387 290.77 109.772C291.551 111.243 293.156 112.469 295.249 112.785C297.343 113.1 299.238 112.402 300.418 111.227C301.529 110.12 303.329 110.123 304.438 111.232Z" fill="white"/>
<path d="M287.721 14.7413C286.981 13.6386 287.276 12.1451 288.378 11.4054L300.059 3.5712C301.161 2.83159 302.655 3.12593 303.395 4.22864L305.705 7.67283C306.444 8.77554 306.15 10.269 305.047 11.0086L293.367 18.8429C292.264 19.5825 290.771 19.2882 290.031 18.1854L287.721 14.7413Z" fill="white"/>
<path d="M314.112 100.131C313.829 98.8333 314.651 97.5521 315.948 97.2689L329.689 94.269C330.986 93.9858 332.267 94.8078 332.551 96.1051L333.435 100.157C333.718 101.454 332.896 102.735 331.599 103.018L317.859 106.018C316.561 106.302 315.28 105.48 314.997 104.182L314.112 100.131Z" fill="white"/>
<path d="M327.958 61.5774C326.967 62.4612 325.448 62.3745 324.564 61.3836L315.202 50.888C314.318 49.8971 314.405 48.3774 315.396 47.4935L318.49 44.733C319.481 43.8491 321.001 43.9359 321.885 44.9267L331.247 55.4224C332.131 56.4132 332.044 57.933 331.053 58.8168L327.958 61.5774Z" fill="white"/>
<path d="M262.593 98.1953C263.902 97.9707 265.145 98.8494 265.37 100.158L267.749 114.02C267.974 115.328 267.095 116.571 265.786 116.796L261.699 117.497C260.39 117.722 259.147 116.843 258.923 115.535L256.543 101.673C256.319 100.365 257.197 99.1216 258.506 98.897L262.593 98.1953Z" fill="white"/>
<path d="M396.13 22.6312L382.237 10.1737C381.945 9.91272 381.485 9.94767 381.249 10.2644C378.436 14.0163 379.199 19.6401 383.124 23.1596C387.05 26.6792 392.722 26.8284 396.147 23.6223C396.435 23.3523 396.421 22.8922 396.13 22.6312Z" fill="white"/>
<path d="M468.061 107.661L481.955 120.119C482.246 120.38 482.706 120.345 482.942 120.028C485.756 116.276 484.992 110.652 481.067 107.133C477.142 103.613 471.469 103.464 468.044 106.67C467.756 106.94 467.77 107.4 468.061 107.661Z" fill="white"/>
<path d="M483.737 46.8011L469.288 34.9925C468.985 34.7451 468.527 34.801 468.306 35.1283C465.667 39.005 466.687 44.5879 470.769 47.9241C474.851 51.2603 480.525 51.1498 483.799 47.7904C484.075 47.5074 484.04 47.0485 483.737 46.8011Z" fill="white"/>
<path d="M390.008 87.881L403.15 74.6335C403.425 74.356 403.414 73.8947 403.109 73.6431C399.504 70.6437 393.849 71.1227 390.136 74.8654C386.423 78.6082 385.988 84.2657 389.017 87.8481C389.272 88.1493 389.732 88.1586 390.008 87.881Z" fill="white"/>
<path d="M387.213 57.7303C384.473 58.0212 381.779 53.8017 381.195 48.3058C380.611 42.8098 382.359 38.1186 385.099 37.8276C387.839 37.5367 390.533 41.7561 391.116 47.2521C391.7 52.7481 389.952 57.4393 387.213 57.7303Z" fill="white"/>
<path d="M478.567 67.2067C481.306 66.9158 484.001 71.1353 484.584 76.6312C485.168 82.1272 483.42 86.8184 480.68 87.1094C477.941 87.4004 475.247 83.1809 474.663 77.6849C474.079 72.1889 475.827 67.4977 478.567 67.2067Z" fill="white"/>
<path d="M448.691 15.2079C450.473 16.4886 449.302 21.1648 446.076 25.6526C442.85 30.1403 438.791 32.7402 437.009 31.4595C435.228 30.1788 436.398 25.5026 439.624 21.0148C442.85 16.5271 446.91 13.9272 448.691 15.2079Z" fill="white"/>
<path d="M422.18 91.4722C419.998 91.2347 418.715 86.588 419.313 81.0937C419.912 75.5993 422.165 71.3377 424.346 71.5753C426.528 71.8128 427.811 76.4594 427.213 81.9538C426.614 87.4482 424.361 91.7097 422.18 91.4722Z" fill="white"/>
<path fill-rule="evenodd" clip-rule="evenodd" d="M423.337 44.5939C424.25 45.8701 423.954 47.6421 422.677 48.5517C419.801 50.6002 415.93 51.2084 412.265 50.0173C408.599 48.8261 405.825 46.0586 404.702 42.7117C404.204 41.2251 405.006 39.6178 406.494 39.1216C407.983 38.6254 409.594 39.4284 410.093 40.915C410.622 42.4943 412.005 43.9666 414.018 44.6207C416.032 45.275 418.015 44.8964 419.372 43.9302C420.649 43.0206 422.424 43.3177 423.337 44.5939Z" fill="white"/>
<path fill-rule="evenodd" clip-rule="evenodd" d="M444.125 79.5169C443.212 78.2407 443.508 76.4688 444.785 75.5591C447.661 73.5106 451.531 72.9024 455.197 74.0935C458.863 75.2847 461.637 78.0522 462.76 81.3991C463.258 82.8857 462.456 84.4931 460.967 84.9892C459.479 85.4854 457.868 84.6825 457.369 83.1959C456.839 81.6165 455.457 80.1442 453.444 79.4901C451.43 78.8358 449.447 79.2144 448.09 80.1806C446.813 81.0903 445.037 80.7931 444.125 79.5169Z" fill="white"/>
<path fill-rule="evenodd" clip-rule="evenodd" d="M472.515 12.4119C472.264 10.8631 473.316 9.4068 474.864 9.15916C478.351 8.6015 482.089 9.77595 484.844 12.4715C487.599 15.1672 488.855 18.8785 488.374 22.3759C488.16 23.9294 486.728 25.013 485.174 24.7964C483.62 24.5797 482.533 23.1447 482.747 21.5913C482.973 19.941 482.389 18.0078 480.876 16.5276C479.362 15.0469 477.417 14.5048 475.772 14.7679C474.224 15.0155 472.766 13.9607 472.515 12.4119Z" fill="white"/>
<path fill-rule="evenodd" clip-rule="evenodd" d="M428.438 111.232C429.548 112.342 429.546 114.138 428.435 115.245C425.933 117.736 422.215 118.97 418.403 118.395C414.591 117.821 411.403 115.545 409.747 112.427C409.011 111.042 409.54 109.325 410.927 108.592C412.314 107.858 414.035 108.387 414.77 109.772C415.551 111.243 417.156 112.469 419.249 112.785C421.343 113.1 423.238 112.402 424.418 111.227C425.529 110.12 427.329 110.123 428.438 111.232Z" fill="white"/>
<path d="M411.721 14.7413C410.981 13.6386 411.276 12.1451 412.378 11.4054L424.059 3.5712C425.161 2.83159 426.655 3.12593 427.395 4.22864L429.705 7.67283C430.444 8.77554 430.15 10.269 429.047 11.0086L417.367 18.8429C416.264 19.5825 414.771 19.2882 414.031 18.1854L411.721 14.7413Z" fill="white"/>
<path d="M438.112 100.131C437.829 98.8333 438.651 97.5521 439.948 97.2689L453.689 94.269C454.986 93.9858 456.267 94.8078 456.551 96.1051L457.435 100.157C457.718 101.454 456.896 102.735 455.599 103.018L441.859 106.018C440.561 106.302 439.28 105.48 438.997 104.182L438.112 100.131Z" fill="white"/>
<path d="M451.958 61.5774C450.967 62.4612 449.448 62.3745 448.564 61.3836L439.202 50.888C438.318 49.8971 438.405 48.3774 439.396 47.4935L442.49 44.733C443.481 43.8491 445.001 43.9359 445.885 44.9267L455.247 55.4224C456.131 56.4132 456.044 57.933 455.053 58.8168L451.958 61.5774Z" fill="white"/>
<path d="M386.593 98.1953C387.902 97.9707 389.145 98.8494 389.37 100.158L391.749 114.02C391.974 115.328 391.095 116.571 389.786 116.796L385.699 117.497C384.39 117.722 383.147 116.843 382.923 115.535L380.543 101.673C380.319 100.365 381.197 99.1216 382.506 98.897L386.593 98.1953Z" fill="white"/>
<path d="M520.13 22.6312L506.237 10.1737C505.945 9.91272 505.485 9.94767 505.249 10.2644C502.436 14.0163 503.199 19.6401 507.124 23.1596C511.05 26.6792 516.722 26.8284 520.147 23.6223C520.435 23.3523 520.421 22.8922 520.13 22.6312Z" fill="white"/>
<path d="M592.061 107.661L605.955 120.119C606.246 120.38 606.706 120.345 606.942 120.028C609.756 116.276 608.992 110.652 605.067 107.133C601.142 103.613 595.469 103.464 592.044 106.67C591.756 106.94 591.77 107.4 592.061 107.661Z" fill="white"/>
<path d="M607.737 46.8011L593.288 34.9925C592.985 34.7451 592.527 34.801 592.306 35.1283C589.667 39.005 590.687 44.5879 594.769 47.9241C598.851 51.2603 604.525 51.1498 607.799 47.7904C608.075 47.5074 608.04 47.0485 607.737 46.8011Z" fill="white"/>
<path d="M514.008 87.881L527.15 74.6335C527.425 74.356 527.414 73.8947 527.109 73.6431C523.504 70.6437 517.849 71.1227 514.136 74.8654C510.423 78.6082 509.988 84.2657 513.017 87.8481C513.272 88.1493 513.732 88.1586 514.008 87.881Z" fill="white"/>
<path d="M511.213 57.7303C508.473 58.0212 505.779 53.8017 505.195 48.3058C504.611 42.8098 506.359 38.1186 509.099 37.8276C511.839 37.5367 514.533 41.7561 515.116 47.2521C515.7 52.7481 513.952 57.4393 511.213 57.7303Z" fill="white"/>
<path d="M602.567 67.2067C605.306 66.9158 608.001 71.1353 608.584 76.6312C609.168 82.1272 607.42 86.8184 604.68 87.1094C601.941 87.4004 599.247 83.1809 598.663 77.6849C598.079 72.1889 599.827 67.4977 602.567 67.2067Z" fill="white"/>
<path d="M572.691 15.2079C574.473 16.4886 573.302 21.1648 570.076 25.6526C566.85 30.1403 562.791 32.7402 561.009 31.4595C559.228 30.1788 560.398 25.5026 563.624 21.0148C566.85 16.5271 570.91 13.9272 572.691 15.2079Z" fill="white"/>
<path d="M546.18 91.4722C543.998 91.2347 542.715 86.588 543.313 81.0937C543.912 75.5993 546.165 71.3377 548.346 71.5753C550.528 71.8128 551.811 76.4594 551.213 81.9538C550.614 87.4482 548.361 91.7097 546.18 91.4722Z" fill="white"/>
<path fill-rule="evenodd" clip-rule="evenodd" d="M547.337 44.5939C548.25 45.8701 547.954 47.6421 546.677 48.5517C543.801 50.6002 539.93 51.2084 536.265 50.0173C532.599 48.8261 529.825 46.0586 528.702 42.7117C528.204 41.2251 529.006 39.6178 530.494 39.1216C531.983 38.6254 533.594 39.4284 534.093 40.915C534.622 42.4943 536.005 43.9666 538.018 44.6207C540.032 45.275 542.015 44.8964 543.372 43.9302C544.649 43.0206 546.424 43.3177 547.337 44.5939Z" fill="white"/>
<path fill-rule="evenodd" clip-rule="evenodd" d="M568.125 79.5169C567.212 78.2407 567.508 76.4688 568.785 75.5591C571.661 73.5106 575.531 72.9024 579.197 74.0935C582.863 75.2847 585.637 78.0522 586.76 81.3991C587.258 82.8857 586.456 84.4931 584.967 84.9892C583.479 85.4854 581.868 84.6825 581.369 83.1959C580.839 81.6165 579.457 80.1442 577.444 79.4901C575.43 78.8358 573.447 79.2144 572.09 80.1806C570.813 81.0903 569.037 80.7931 568.125 79.5169Z" fill="white"/>
<path fill-rule="evenodd" clip-rule="evenodd" d="M596.515 12.4119C596.264 10.8631 597.316 9.4068 598.864 9.15916C602.351 8.6015 606.089 9.77595 608.844 12.4715C611.599 15.1672 612.855 18.8785 612.374 22.3759C612.16 23.9294 610.728 25.013 609.174 24.7964C607.62 24.5797 606.533 23.1447 606.747 21.5913C606.973 19.941 606.389 18.0078 604.876 16.5276C603.362 15.0469 601.417 14.5048 599.772 14.7679C598.224 15.0155 596.766 13.9607 596.515 12.4119Z" fill="white"/>
<path fill-rule="evenodd" clip-rule="evenodd" d="M552.438 111.232C553.548 112.342 553.546 114.138 552.435 115.245C549.933 117.736 546.215 118.97 542.403 118.395C538.591 117.821 535.403 115.545 533.747 112.427C533.011 111.042 533.54 109.325 534.927 108.592C536.314 107.858 538.035 108.387 538.77 109.772C539.551 111.243 541.156 112.469 543.249 112.785C545.343 113.1 547.238 112.402 548.418 111.227C549.529 110.12 551.329 110.123 552.438 111.232Z" fill="white"/>
<path d="M535.721 14.7413C534.981 13.6386 535.276 12.1451 536.378 11.4054L548.059 3.5712C549.161 2.83159 550.655 3.12593 551.395 4.22864L553.705 7.67283C554.444 8.77554 554.15 10.269 553.047 11.0086L541.367 18.8429C540.264 19.5825 538.771 19.2882 538.031 18.1854L535.721 14.7413Z" fill="white"/>
<path d="M562.112 100.131C561.829 98.8333 562.651 97.5521 563.948 97.2689L577.689 94.269C578.986 93.9858 580.267 94.8078 580.551 96.1051L581.435 100.157C581.718 101.454 580.896 102.735 579.599 103.018L565.859 106.018C564.561 106.302 563.28 105.48 562.997 104.182L562.112 100.131Z" fill="white"/>
<path d="M575.958 61.5774C574.967 62.4612 573.448 62.3745 572.564 61.3836L563.202 50.888C562.318 49.8971 562.405 48.3774 563.396 47.4935L566.49 44.733C567.481 43.8491 569.001 43.9359 569.885 44.9267L579.247 55.4224C580.131 56.4132 580.044 57.933 579.053 58.8168L575.958 61.5774Z" fill="white"/>
<path d="M510.593 98.1953C511.902 97.9707 513.145 98.8494 513.37 100.158L515.749 114.02C515.974 115.328 515.095 116.571 513.786 116.796L509.699 117.497C508.39 117.722 507.147 116.843 506.923 115.535L504.543 101.673C504.319 100.365 505.197 99.1216 506.506 98.897L510.593 98.1953Z" fill="white"/>
<path d="M644.13 22.6312L630.237 10.1737C629.945 9.91272 629.485 9.94767 629.249 10.2644C626.436 14.0163 627.199 19.6401 631.124 23.1596C635.05 26.6792 640.722 26.8284 644.147 23.6223C644.435 23.3523 644.421 22.8922 644.13 22.6312Z" fill="white"/>
<path d="M716.061 107.661L729.955 120.119C730.246 120.38 730.706 120.345 730.942 120.028C733.756 116.276 732.992 110.652 729.067 107.133C725.142 103.613 719.469 103.464 716.044 106.67C715.756 106.94 715.77 107.4 716.061 107.661Z" fill="white"/>
<path d="M731.737 46.8011L717.288 34.9925C716.985 34.7451 716.527 34.801 716.306 35.1283C713.667 39.005 714.687 44.5879 718.769 47.9241C722.851 51.2603 728.525 51.1498 731.799 47.7904C732.075 47.5074 732.04 47.0485 731.737 46.8011Z" fill="white"/>
<path d="M638.008 87.881L651.15 74.6335C651.425 74.356 651.414 73.8947 651.109 73.6431C647.504 70.6437 641.849 71.1227 638.136 74.8654C634.423 78.6082 633.988 84.2657 637.017 87.8481C637.272 88.1493 637.732 88.1586 638.008 87.881Z" fill="white"/>
<path d="M635.213 57.7303C632.473 58.0212 629.779 53.8017 629.195 48.3058C628.611 42.8098 630.359 38.1186 633.099 37.8276C635.839 37.5367 638.533 41.7561 639.116 47.2521C639.7 52.7481 637.952 57.4393 635.213 57.7303Z" fill="white"/>
<path d="M726.567 67.2067C729.306 66.9158 732.001 71.1353 732.584 76.6312C733.168 82.1272 731.42 86.8184 728.68 87.1094C725.941 87.4004 723.247 83.1809 722.663 77.6849C722.079 72.1889 723.827 67.4977 726.567 67.2067Z" fill="white"/>
<path d="M696.691 15.2079C698.473 16.4886 697.302 21.1648 694.076 25.6526C690.85 30.1403 686.791 32.7402 685.009 31.4595C683.228 30.1788 684.398 25.5026 687.624 21.0148C690.85 16.5271 694.91 13.9272 696.691 15.2079Z" fill="white"/>
<path d="M670.18 91.4722C667.998 91.2347 666.715 86.588 667.313 81.0937C667.912 75.5993 670.165 71.3377 672.346 71.5753C674.528 71.8128 675.811 76.4594 675.213 81.9538C674.614 87.4482 672.361 91.7097 670.18 91.4722Z" fill="white"/>
<path fill-rule="evenodd" clip-rule="evenodd" d="M671.337 44.5939C672.25 45.8701 671.954 47.6421 670.677 48.5517C667.801 50.6002 663.93 51.2084 660.265 50.0173C656.599 48.8261 653.825 46.0586 652.702 42.7117C652.204 41.2251 653.006 39.6178 654.494 39.1216C655.983 38.6254 657.594 39.4284 658.093 40.915C658.622 42.4943 660.005 43.9666 662.018 44.6207C664.032 45.275 666.015 44.8964 667.372 43.9302C668.649 43.0206 670.424 43.3177 671.337 44.5939Z" fill="white"/>
<path fill-rule="evenodd" clip-rule="evenodd" d="M692.125 79.5169C691.212 78.2407 691.508 76.4688 692.785 75.5591C695.661 73.5106 699.531 72.9024 703.197 74.0935C706.863 75.2847 709.637 78.0522 710.76 81.3991C711.258 82.8857 710.456 84.4931 708.967 84.9892C707.479 85.4854 705.868 84.6825 705.369 83.1959C704.839 81.6165 703.457 80.1442 701.444 79.4901C699.43 78.8358 697.447 79.2144 696.09 80.1806C694.813 81.0903 693.037 80.7931 692.125 79.5169Z" fill="white"/>
<path fill-rule="evenodd" clip-rule="evenodd" d="M720.515 12.4119C720.264 10.8631 721.316 9.4068 722.864 9.15916C726.351 8.6015 730.089 9.77595 732.844 12.4715C735.599 15.1672 736.855 18.8785 736.374 22.3759C736.16 23.9294 734.728 25.013 733.174 24.7964C731.62 24.5797 730.533 23.1447 730.747 21.5913C730.973 19.941 730.389 18.0078 728.876 16.5276C727.362 15.0469 725.417 14.5048 723.772 14.7679C722.224 15.0155 720.766 13.9607 720.515 12.4119Z" fill="white"/>
<path fill-rule="evenodd" clip-rule="evenodd" d="M676.438 111.232C677.548 112.342 677.546 114.138 676.435 115.245C673.933 117.736 670.215 118.97 666.403 118.395C662.591 117.821 659.403 115.545 657.747 112.427C657.011 111.042 657.54 109.325 658.927 108.592C660.314 107.858 662.035 108.387 662.77 109.772C663.551 111.243 665.156 112.469 667.249 112.785C669.343 113.1 671.238 112.402 672.418 111.227C673.529 110.12 675.329 110.123 676.438 111.232Z" fill="white"/>
<path d="M659.721 14.7413C658.981 13.6386 659.276 12.1451 660.378 11.4054L672.059 3.5712C673.161 2.83159 674.655 3.12593 675.395 4.22864L677.705 7.67283C678.444 8.77554 678.15 10.269 677.047 11.0086L665.367 18.8429C664.264 19.5825 662.771 19.2882 662.031 18.1854L659.721 14.7413Z" fill="white"/>
<path d="M686.112 100.131C685.829 98.8333 686.651 97.5521 687.948 97.2689L701.689 94.269C702.986 93.9858 704.267 94.8078 704.551 96.1051L705.435 100.157C705.718 101.454 704.896 102.735 703.599 103.018L689.859 106.018C688.561 106.302 687.28 105.48 686.997 104.182L686.112 100.131Z" fill="white"/>
<path d="M699.958 61.5774C698.967 62.4612 697.448 62.3745 696.564 61.3836L687.202 50.888C686.318 49.8971 686.405 48.3774 687.396 47.4935L690.49 44.733C691.481 43.8491 693.001 43.9359 693.885 44.9267L703.247 55.4224C704.131 56.4132 704.044 57.933 703.053 58.8168L699.958 61.5774Z" fill="white"/>
<path d="M634.593 98.1953C635.902 97.9707 637.145 98.8494 637.37 100.158L639.749 114.02C639.974 115.328 639.095 116.571 637.786 116.796L633.699 117.497C632.39 117.722 631.147 116.843 630.923 115.535L628.543 101.673C628.319 100.365 629.197 99.1216 630.506 98.897L634.593 98.1953Z" fill="white"/>
<path d="M768.13 22.6312L754.237 10.1737C753.945 9.91272 753.485 9.94767 753.249 10.2644C750.436 14.0163 751.199 19.6401 755.124 23.1596C759.05 26.6792 764.722 26.8284 768.147 23.6223C768.435 23.3523 768.421 22.8922 768.13 22.6312Z" fill="white"/>
<path d="M762.008 87.881L775.15 74.6335C775.425 74.356 775.414 73.8947 775.109 73.6431C771.504 70.6437 765.849 71.1227 762.136 74.8654C758.423 78.6082 757.988 84.2657 761.017 87.8481C761.272 88.1493 761.732 88.1586 762.008 87.881Z" fill="white"/>
<path d="M759.213 57.7303C756.473 58.0212 753.779 53.8017 753.195 48.3058C752.611 42.8098 754.359 38.1186 757.099 37.8276C759.839 37.5367 762.533 41.7561 763.116 47.2521C763.7 52.7481 761.952 57.4393 759.213 57.7303Z" fill="white"/>
<path d="M758.593 98.1953C759.902 97.9707 761.145 98.8494 761.37 100.158L763.749 114.02C763.974 115.328 763.095 116.571 761.786 116.796L757.699 117.497C756.39 117.722 755.147 116.843 754.923 115.535L752.543 101.673C752.319 100.365 753.197 99.1216 754.506 98.897L758.593 98.1953Z" fill="white"/>
</g>
</svg>
